<?xml version="1.0" encoding="UTF-8" standalone="no"?>
<svg
   width="149"
   height="117"
   version="1.0"
   id="svg10"
   sodipodi:docname="Ligature_drawing.svg"
   inkscape:version="1.2.2 (b0a8486541, 2022-12-01)"
   xmlns:inkscape="http://www.inkscape.org/namespaces/inkscape"
   xmlns:sodipodi="http://sodipodi.sourceforge.net/DTD/sodipodi-0.dtd"
   xmlns="http://www.w3.org/2000/svg"
   xmlns:svg="http://www.w3.org/2000/svg">
  <defs
     id="defs14" />
  <sodipodi:namedview
     id="namedview12"
     pagecolor="#ffffff"
     bordercolor="#000000"
     borderopacity="0.25"
     inkscape:showpageshadow="2"
     inkscape:pageopacity="0.0"
     inkscape:pagecheckerboard="0"
     inkscape:deskcolor="#d1d1d1"
     showgrid="false"
     inkscape:zoom="8.1161403"
     inkscape:cx="99.369894"
     inkscape:cy="81.935499"
     inkscape:window-width="2560"
     inkscape:window-height="1547"
     inkscape:window-x="0"
     inkscape:window-y="27"
     inkscape:window-maximized="1"
     inkscape:current-layer="svg10" />
  <path
     d="M120.20208 38.820598c0 3.807958-.05289 4.336846-2.00976 4.601288l-1.21643.158665c-.37022.264441-.26445 1.163544.10577 1.322209 1.58665-.105777 3.17331-.158665 5.07729-.158665 1.85109 0 3.38485.052888 5.55327.158665.37022-.158665.476-1.057768.10578-1.322209l-1.69243-.158665c-1.90398-.158665-2.00976-.79333-2.00976-4.601288V27.766929c0-1.269319.10578-1.639539 1.00488-1.639539h6.61105c2.2742 0 2.64442.264445 2.64442 3.490632v9.202576c0 3.807958-.05289 4.336846-2.00976 4.601288l-1.11066.158665c-.37021.264441-.26444 1.163544.10578 1.322209 1.48087-.105777 3.06753-.158665 4.97151-.158665 1.85109 0 3.38485.052888 4.9715.158665.37022-.158665.476-1.057768.10578-1.322209l-1.11065-.158665c-1.90398-.264442-2.00976-.79333-2.00976-4.601288v-8.832357c0-2.168421.10577-4.707067.21155-6.611046-.10578-.158665-.31733-.264442-.52888-.264442-1.26932.475995-4.60129.793325-6.92838.793325h-5.9235c-.8991 0-1.00488-.317331-1.00488-1.639539v-.581772c0-8.197689 1.90399-12.7460964 6.02928-12.7460964 1.37509 0 3.43774.8991048 4.97151 3.4906324.26444.423106.63466.793325 1.37509.793325.79333 0 2.16843-.581773 2.16843-2.168423 0-2.2213089-2.96176-4.1252923-6.55816-4.1252923-5.92349 0-9.14969 4.4426253-10.26034 7.1399293-1.21644 2.803081-1.63954 5.870612-1.63954 8.885246 0 .528883-.37022.846214-.79333 1.057767l-2.2742 1.110656c-.21155.31733-.15866.793326.15867 1.004879h1.85109c1.05776 0 1.05777.105778 1.05777 1.533762v11.159446M21.842716 26.12739c.581771-.211553.95199-1.692428.370218-2.221312H16.18366c-.899101 0-.899102-.052889-.899102-1.480874v-1.533763c0-2.644415.211554-6.505271 1.163544-8.938134.793325-1.903979 2.115536-2.9088597 3.755074-2.9088597 1.745315 0 3.226192 1.1635457 4.23107 2.3270877.370218.423107.687549.634661 1.26932.634661 1.004878 0 2.009758-.846215 2.009758-1.903981 0-1.9039796-2.379979-3.1733023-5.18306-3.1733023-5.235943 0-8.197698 3.7021883-9.519906 6.7168223-1.269319 2.961746-1.639539 6.240831-1.639539 9.308353 0 .528883-.370219.846214-.793326 1.057767l-2.2741993 1.110656c-.2115533.31733-.1586648.793326.1586651 1.004879h1.8510932c1.057766 0 1.057767.105778 1.057767 1.533762v11.159446c0 3.807958-.05289 4.336846-2.009758 4.601288l-1.2164324.158665c-.3702182.264441-.2644415 1.163544.1057767 1.322209 1.5866494-.105777 3.1733037-.158665 5.0772837-.158665 1.85109 0 3.384857.052888 5.764831.158665.370219-.158665.475995-1.057768.105777-1.322209l-1.903981-.158665c-1.903979-.158665-2.009758-.79333-2.009758-4.601288V27.661152c0-1.427984.000001-1.533762.899102-1.533762h5.659056m6.673659 12.693208c0 3.807958-.05289 4.336846-2.009758 4.601288l-1.110656.158665c-.370218.264441-.264441 1.163544.105777 1.322209 1.480873-.105777 3.067527-.158665 4.971506-.158665 1.851091 0 3.384857.052888 4.971507.158665.370218-.158665.475995-1.057768.105777-1.322209l-1.110656-.158665c-1.903979-.264442-2.009758-.79333-2.009758-4.601288v-9.519906c0-2.168421.105777-4.707067.211553-6.558158-.052888-.211553-.264442-.31733-.528883-.31733-1.216431.793325-4.231071 2.168424-5.447502 2.59153-.264442.158665-.264442.740437-.052888.951991l.475995.31733c1.427984.95199 1.427986 1.216434 1.427986 3.279079v9.255464m1.745316-27.078844c-1.586649 0-2.855972 1.110657-2.855972 2.855972 0 1.427984 1.057769 2.644418 2.697307 2.644418 1.480873 0 2.803083-.846216 2.803083-2.750195 0-1.480873-1.057769-2.750195-2.644418-2.750195"
     color="#000"
     font-family="Adobe Garamond Pro"
     font-size="52.8883667"
     font-weight="400"
     overflow="visible"
     style="text-indent:0;text-align:start;line-height:100%;text-transform:none;block-progression:tb;marker:none;stroke:none;stroke-opacity:1;fill:#ffffff;fill-opacity:1"
     id="path2" />
  <path
     fill-rule="evenodd"
     d="M66 31h22v-6l7 7.5-7 7V34H66v-3z"
     id="path4"
     style="stroke:none;stroke-opacity:1;fill:#ffffff;fill-opacity:1" />
  <path
     d="M133.37128 89.238893c.95199 0 1.00488.158666 1.00488 1.057768V101.9321c0 3.80796-.05289 4.33685-2.00976 4.60129l-1.21643.15866c-.37022.26445-.26444 1.16355.10577 1.32221 1.58665-.10577 3.17331-.15866 5.07729-.15866 1.85109 0 3.38485.05289 5.13017.15866.37022-.15866.47599-1.05776.10578-1.32221l-1.26932-.15866c-1.90398-.26444-2.00976-.79333-2.00976-4.60129V78.132336c0-2.274197.05289-5.55328.15866-7.880366-.15866-.158665-.37022-.211554-.63466-.211554l-1.3751 1.375098c-1.53376-.95199-3.22619-1.375098-4.91861-1.375098-5.65905 0-8.72659 3.966631-9.89013 6.8226-1.21643 2.961745-1.42798 5.870612-1.42798 9.202575 0 .528884-.37022.846214-.79333 1.057768l-2.2742 1.110655c-.21155.31733-.15866.793326.15867 1.004879h1.85109c1.05776 0 1.05777.105779 1.05777 1.533763V101.9321c0 3.80796-.05289 4.33685-2.00976 4.60129l-1.21643.15866c-.37022.26445-.26445 1.16355.10577 1.32221 1.58665-.10577 3.17331-.15866 5.07729-.15866 1.85109 0 3.38485.05289 5.50039.15866.37021-.15866.47599-1.05776.10577-1.32221l-1.63954-.15866c-1.90398-.15867-2.00976-.79333-2.00976-4.60129V90.878433c0-1.639538.05289-1.63954 1.00488-1.63954h8.25059m1.00488-3.279078c0 .951989-.21156 1.057767-1.00488 1.057767h-8.25059c-.8991 0-1.00488-.052889-1.00488-1.110656v-1.639539c0-4.442618.26445-12.534543 6.13506-12.534543 1.42798 0 2.64441.951991 3.22619 1.692428.63466.846213.8991 2.221313.8991 4.019516v8.515027M21.842716 89.238893c.581771-.211553.95199-1.692428.370218-2.221311H16.18366c-.899101 0-.899102-.05289-.899102-1.480874v-1.533763c0-2.644416.211554-6.505271 1.163544-8.938134.793325-1.903979 2.115536-2.90886 3.755074-2.90886 1.745315 0 3.226192 1.163545 4.23107 2.327088.370218.423107.687549.63466 1.26932.63466 1.004878 0 2.009758-.846214 2.009758-1.903981 0-1.903979-2.379979-3.173302-5.18306-3.173302-5.235943 0-8.197698 3.702189-9.519906 6.716823-1.269319 2.961745-1.639539 6.24083-1.639539 9.308352 0 .528884-.370219.846214-.793326 1.057768l-2.2741993 1.110655c-.2115533.31733-.1586648.793326.1586651 1.004879h1.8510932c1.057766 0 1.057767.105779 1.057767 1.533763V101.9321c0 3.80796-.05289 4.33685-2.009758 4.60129l-1.2164324.15866c-.3702182.26445-.2644415 1.16355.1057767 1.32221 1.5866494-.10577 3.1733037-.15866 5.0772837-.15866 1.85109 0 3.384857.05289 5.764831.15866.370219-.15866.475995-1.05776.105777-1.32221l-1.903981-.15866c-1.903979-.15867-2.009758-.79333-2.009758-4.60129V90.772656c0-1.427984.000001-1.533763.899102-1.533763h5.659056m12.50154-12.322989c0-2.327086.105777-4.971508.158665-6.558158-.105777-.211553-.31733-.31733-.528884-.31733-1.903979 1.004878-4.389735 1.798205-5.711943 2.221312-.264442.158665-.264442.899102 0 1.057767l.528883.31733c1.58665.95199 1.63954 1.269324 1.63954 4.389735v23.90554c0 3.80796-.052891 4.33685-2.009758 4.60129l-1.216433.15866c-.370218.26445-.264441 1.16355.105777 1.32221 1.58665-.10577 3.173304-.15866 5.077283-.15866 1.851091 0 3.384858.05289 5.130172.15866.370218-.15866.475995-1.05776.105777-1.32221l-1.269321-.15866c-1.903979-.26444-2.009758-.79333-2.009758-4.60129V76.915904"
     color="#000"
     font-family="Adobe Garamond Pro"
     font-size="52.8883667"
     font-weight="400"
     overflow="visible"
     style="text-indent:0;text-align:start;line-height:100%;text-transform:none;block-progression:tb;marker:none;stroke:none;stroke-opacity:1;fill:#ffffff;fill-opacity:1"
     id="path6" />
  <path
     fill-rule="evenodd"
     d="M66 94.111506h22v-6l7 7.5-7 7.000004v-5.500004H66v-3z"
     id="path8"
     style="stroke:none;stroke-opacity:1;fill:#ffffff;fill-opacity:1" />
</svg>
